<svg xmlns="http://www.w3.org/2000/svg" xmlns:xlink="http://www.w3.org/1999/xlink" width="375" zoomAndPan="magnify" viewBox="0 0 375 374.999991" height="374.999991" preserveAspectRatio="xMidYMid meet" version="1.0"><defs><clipPath id="id1"><path d="M 79.066406 61.148438 L 295.816406 61.148438 L 295.816406 313.898438 L 79.066406 313.898438 Z M 79.066406 61.148438 " clip-rule="nonzero"/></clipPath></defs><g clip-path="url(#id1)"><path fill="rgb(27.059937%, 58.428955%, 81.568909%)" d="M 283.996094 267.398438 L 283.996094 267.421875 C 281.558594 270.460938 278.957031 273.410156 276.199219 276.269531 C 266.582031 286.242188 255.632812 294.429688 243.355469 300.835938 C 246.363281 296.023438 248.886719 290.96875 250.917969 285.671875 C 257.660156 268.050781 258.234375 249.800781 252.535156 234.289062 C 243.578125 209.90625 220.4375 197.730469 195.941406 184.84375 C 177.917969 175.386719 159.3125 165.609375 145.980469 150.507812 C 136.367188 139.601562 131.332031 126.121094 131.71875 112.648438 C 131.71875 112.347656 131.71875 112.050781 131.75 111.75 C 131.773438 111.15625 131.8125 110.558594 131.863281 109.964844 C 131.984375 108.503906 132.167969 107 132.425781 105.527344 C 134.140625 95.601562 138.828125 86.203125 146.109375 77.832031 C 160.277344 62.933594 183.855469 55.890625 212.027344 65.648438 L 212.078125 65.648438 C 216.4375 67.203125 220.71875 68.953125 224.921875 70.898438 C 229.125 72.839844 233.226562 74.972656 237.234375 77.292969 C 241.242188 79.613281 245.136719 82.113281 248.914062 84.785156 C 252.695312 87.460938 256.34375 90.304688 259.863281 93.3125 C 263.382812 96.320312 266.761719 99.484375 269.992188 102.800781 C 273.222656 106.117188 276.296875 109.578125 279.214844 113.175781 C 282.128906 116.773438 284.875 120.496094 287.453125 124.34375 C 290.03125 128.191406 292.425781 132.152344 294.640625 136.21875 C 248.324219 119.023438 222.578125 127.027344 211.273438 121.929688 C 207.117188 120.023438 203.328125 117.5625 199.894531 114.542969 C 196.460938 111.527344 193.53125 108.082031 191.109375 104.207031 L 191.109375 104.175781 C 168.808594 69.8125 151.488281 89.460938 155.878906 113.175781 C 159.226562 128.867188 168.738281 143.472656 183.003906 154.402344 C 200.207031 167.582031 221.148438 173.839844 239.625 179.375 C 261.609375 185.953125 280.585938 191.628906 289.496094 206.316406 C 299.683594 223.128906 297.339844 248.644531 283.996094 267.398438 Z M 178.976562 190.195312 C 154.476562 177.308594 131.339844 165.121094 122.386719 140.75 C 116.679688 125.238281 117.257812 106.988281 123.996094 89.367188 C 126.027344 84.070312 128.550781 79.015625 131.5625 74.203125 C 119.277344 80.609375 108.328125 88.800781 98.710938 98.773438 C 95.953125 101.628906 93.351562 104.578125 90.910156 107.621094 C 77.542969 126.402344 75.195312 151.921875 85.414062 168.730469 C 94.324219 183.414062 113.308594 189.09375 135.285156 195.671875 C 153.765625 201.199219 174.703125 207.464844 191.910156 220.644531 C 206.179688 231.578125 215.699219 246.179688 219.03125 261.875 C 223.429688 285.589844 206.105469 305.238281 183.808594 270.871094 L 183.808594 270.84375 C 181.378906 266.96875 178.453125 263.523438 175.019531 260.503906 C 171.585938 257.488281 167.792969 255.027344 163.640625 253.121094 C 152.332031 248.023438 126.585938 256.035156 80.273438 238.832031 C 82.488281 242.898438 84.882812 246.855469 87.460938 250.703125 C 90.035156 254.550781 92.78125 258.273438 95.695312 261.871094 C 98.613281 265.464844 101.683594 268.921875 104.914062 272.238281 C 108.144531 275.554688 111.519531 278.71875 115.039062 281.726562 C 118.558594 284.734375 122.207031 287.578125 125.988281 290.25 C 129.765625 292.925781 133.65625 295.421875 137.664062 297.742188 C 141.667969 300.0625 145.773438 302.195312 149.972656 304.136719 C 154.171875 306.082031 158.453125 307.832031 162.8125 309.386719 L 162.855469 309.386719 C 191.015625 319.140625 214.605469 312.101562 228.777344 297.195312 C 236.0625 288.816406 240.746094 279.421875 242.460938 269.503906 C 242.71875 268.023438 242.90625 266.546875 243.023438 265.066406 C 243.070312 264.46875 243.109375 263.871094 243.136719 263.273438 C 243.136719 262.976562 243.164062 262.679688 243.175781 262.378906 C 243.554688 248.910156 238.542969 235.4375 228.910156 224.53125 C 215.574219 209.445312 196.972656 199.660156 178.976562 190.195312 Z M 178.976562 190.195312 " fill-opacity="1" fill-rule="nonzero"/></g></svg>